# xmcd CD database file
#
# Track frame offsets:
#	150
#	22642
#	40982
#	62797
#	82132
#	95117
#	114900
#	141447
#	158482
#	170597
#	190275
#	206505
#
# Disc length: 3089 seconds
#
# Revision: 0
# Processed by: cddbd v1.5.1PL0 Copyright (c) Steve Scherf et al.
# Submitted via: CDex 1.51
#
DISCID=a00c0f0c
DTITLE=Shameless - Backstreet Anthems
DYEAR=1999
DGENRE=Hard Rock
TTITLE0=Backseat Action
TTITLE1=Stranged Days
TTITLE2=Just 1 Nite
TTITLE3=You're The One (I Want)
TTITLE4=Flaming Youth
TTITLE5=Talk To Me
TTITLE6=Realize
TTITLE7=What's Goin' On
TTITLE8=Hard Days Nite
TTITLE9=All The Girls, But U
TTITLE10=You're The One (I Want) - Demo
TTITLE11=Realize - Demo
EXTD=YEAR: 1999
EXTT0=
EXTT1=
EXTT2=
EXTT3=
EXTT4=
EXTT5=
EXTT6=
EXTT7=
EXTT8=
EXTT9=
EXTT10=
EXTT11=
PLAYORDER=
